<svg width="17" height="16" viewBox="0 0 17 16" fill="none" xmlns="http://www.w3.org/2000/svg">
<path fill-rule="evenodd" clip-rule="evenodd" d="M13.6583 2.84146C13.2026 2.38585 12.464 2.38585 12.0083 2.84146L11.3619 3.48791L13.0118 5.13783L13.6583 4.49138C14.1139 4.03577 14.1139 3.29708 13.6583 2.84146ZM14.3654 5.19849C15.2115 4.35235 15.2115 2.98049 14.3654 2.13436C13.5192 1.28822 12.1474 1.28822 11.3012 2.13436L2.14645 11.2891C2.05268 11.3829 2 11.5101 2 11.6427V14.0234C2 14.2996 2.22386 14.5234 2.5 14.5234H4.83333C4.96594 14.5234 5.09312 14.4707 5.18689 14.377L14.3654 5.19849ZM12.3047 5.84493L10.6548 4.19502L3 11.8498V13.5234H4.62623L12.3047 5.84493Z" fill="#828282"/>
</svg>
