<svg width="24" height="24" viewBox="0 0 24 24" fill="none" xmlns="http://www.w3.org/2000/svg">
<g id="Icon/Outline/search">
<path id="Icon (Stroke)" fill-rule="evenodd" clip-rule="evenodd" d="M11.2941 5.41176C8.04538 5.41176 5.41176 8.04538 5.41176 11.2941C5.41176 14.5429 8.04538 17.1765 11.2941 17.1765C14.5429 17.1765 17.1765 14.5429 17.1765 11.2941C17.1765 8.04538 14.5429 5.41176 11.2941 5.41176ZM4 11.2941C4 7.26569 7.26569 4 11.2941 4C15.3225 4 18.5882 7.26569 18.5882 11.2941C18.5882 13.0541 17.9649 14.6685 16.9269 15.9286L19.7933 18.795C20.0689 19.0706 20.0689 19.5176 19.7933 19.7933C19.5176 20.0689 19.0706 20.0689 18.795 19.7933L15.9286 16.9269C14.6685 17.9649 13.0541 18.5882 11.2941 18.5882C7.26569 18.5882 4 15.3225 4 11.2941Z" fill="#A5247A"/>
</g>
</svg>
