<svg width="17" height="16" viewBox="0 0 17 16" fill="none" xmlns="http://www.w3.org/2000/svg">
<path fill-rule="evenodd" clip-rule="evenodd" d="M5.92857 2.66642C5.92857 2.02209 6.46583 1.49976 7.12857 1.49976H9.87143C10.5342 1.49976 11.0714 2.02209 11.0714 2.66642V4.16642H13.2947C13.2979 4.16639 13.3011 4.16639 13.3043 4.16642H13.9857C14.2697 4.16642 14.5 4.39028 14.5 4.66642C14.5 4.94256 14.2697 5.16642 13.9857 5.16642H13.7789L13.2182 12.797C13.1478 13.7564 12.3266 14.4998 11.3373 14.4998H5.66268C4.67336 14.4998 3.85224 13.7564 3.78176 12.797L3.22114 5.16642H3.01429C2.73025 5.16642 2.5 4.94256 2.5 4.66642C2.5 4.39028 2.73025 4.16642 3.01429 4.16642H3.69575C3.69894 4.16639 3.70213 4.16639 3.70531 4.16642H5.92857V2.66642ZM4.25233 5.16642L4.80771 12.7258C4.83975 13.1619 5.21299 13.4998 5.66268 13.4998H11.3373C11.787 13.4998 12.1602 13.1619 12.1923 12.7258L12.7477 5.16642H4.25233ZM10.0429 4.16642H6.95714V2.66642C6.95714 2.57438 7.03389 2.49976 7.12857 2.49976H9.87143C9.96611 2.49976 10.0429 2.57438 10.0429 2.66642V4.16642ZM7.12857 6.83309C7.4126 6.83309 7.64286 7.05695 7.64286 7.33309V11.3331C7.64286 11.6092 7.4126 11.8331 7.12857 11.8331C6.84454 11.8331 6.61429 11.6092 6.61429 11.3331V7.33309C6.61429 7.05695 6.84454 6.83309 7.12857 6.83309ZM9.87143 6.83309C10.1555 6.83309 10.3857 7.05695 10.3857 7.33309V11.3331C10.3857 11.6092 10.1555 11.8331 9.87143 11.8331C9.5874 11.8331 9.35714 11.6092 9.35714 11.3331V7.33309C9.35714 7.05695 9.5874 6.83309 9.87143 6.83309Z" fill="#828282"/>
</svg>
